HIERARCHY
ROOT Hips
{
  OFFSET 7.61835 93.0727 -101.442
  CHANNELS 6 Xposition Yposition Zposition Zrotation Xrotation Yrotation
  JOINT ToSpine
  {
    OFFSET -2.69724 7.43032 -0.144315
    CHANNELS 3 Zrotation Xrotation Yrotation
    JOINT Spine
    {
      OFFSET -0.0310711 10.7595 1.96963
      CHANNELS 3 Zrotation Xrotation Yrotation
      JOINT Spine1
      {
        OFFSET 13.1342 3.43533 0.764692
        CHANNELS 3 Zrotation Xrotation Yrotation
        JOINT Neck
        {
          OFFSET 29.8703 7.82586 -0.130764
          CHANNELS 3 Zrotation Xrotation Yrotation
          JOINT Head
          {
            OFFSET 9.52751 0.295786 -0.907742
            CHANNELS 3 Zrotation Xrotation Yrotation
            End Site
            {
              OFFSET 16.4037 0.713936 2.7358
            }
          }
        }
        JOINT LeftShoulder
        {
          OFFSET 27.5574 4.95586 2.47156
          CHANNELS 3 Zrotation Xrotation Yrotation
          JOINT LeftArm
          {
            OFFSET 1.20734 -0.998971 20.1238
            CHANNELS 3 Zrotation Xrotation Yrotation
            JOINT LeftForeArm
            {
              OFFSET 26.8049 -0.0536703 -0.155908
              CHANNELS 3 Zrotation Xrotation Yrotation
              JOINT LeftHand
              {
                OFFSET 26.6817 0 0.320147
                CHANNELS 3 Zrotation Xrotation Yrotation
                End Site
                {
                  OFFSET 18.6119 0 0.382219
                }
              }
            }
          }
        }
        JOINT RightShoulder
        {
          OFFSET 27.5927 4.71444 -2.65209
          CHANNELS 3 Zrotation Xrotation Yrotation
          JOINT RightArm
          {
            OFFSET 2.83739 -1.17114 -18.7564
            CHANNELS 3 Zrotation Xrotation Yrotation
            JOINT RightForeArm
            {
              OFFSET 28.839 -0.0548439 1.22491
              CHANNELS 3 Zrotation Xrotation Yrotation
              JOINT RightHand
              {
                OFFSET 26.5114 0 -0.101894
                CHANNELS 3 Zrotation Xrotation Yrotation
                End Site
                {
                  OFFSET 18.2168 0 0
                }
              }
            }
          }
        }
      }
    }
  }
  JOINT LeftUpLeg
  {
    OFFSET -4.76168 -1.9167 -10.2353
    CHANNELS 3 Zrotation Xrotation Yrotation
    JOINT LeftLeg
    {
      OFFSET 2.55951 -42.0585 -8.02213
      CHANNELS 3 Zrotation Xrotation Yrotation
      JOINT LeftFoot
      {
        OFFSET 3.16357 -42.5282 -3.95426
        CHANNELS 3 Zrotation Xrotation Yrotation
        JOINT LeftToeBase
        {
          OFFSET 0.346054 -6.02161 12.8035
          CHANNELS 3 Zrotation Xrotation Yrotation
          End Site
          {
            OFFSET 0.134235 -1.35082 5.13018
          }
        }
      }
    }
  }
  JOINT RightUpLeg
  {
    OFFSET -4.94151 -1.41743 10.6446
    CHANNELS 3 Zrotation Xrotation Yrotation
    JOINT RightLeg
    {
      OFFSET -2.56294 -42.0364 -7.94377
      CHANNELS 3 Zrotation Xrotation Yrotation
      JOINT RightFoot
      {
        OFFSET -3.0952 -42.555 -4.02241
        CHANNELS 3 Zrotation Xrotation Yrotation
        JOINT RightToeBase
        {
          OFFSET -0.0828122 -6.13587 12.8035
          CHANNELS 3 Zrotation Xrotation Yrotation
          End Site
          {
            OFFSET -0.131328 -1.35082 5.13018
          }
        }
      }
    }
  }
}
MOTION
Frames:	18
Frame Time:	0.0333333
-1.37571 88.5604 90.4336 73.6484 -39.8732 -7.68215 -70.1915 0 88.8779 99.9003 73.324 -13.1559 1.55797 22.2118 5.54789 -117.086 29.0341 158.975 -179.442 72.9673 -143.417 0.727309 -13.1093 -20.5187 -74.9142 38.017 -138.626 23.1919 -5.58878 -102.048 0.420957 0.000575464 0.35866 -2.36193 8.13463 43.251 -125.301 -10.2628 95.6678 14.8354 -5.79979 69.0468 0.58676 0.00033073 0.0646653 -39.8702 11.0818 101.872 -7.06443 64.6302 -2.3201 -0.386573 -24.0698 -2.08395 3.73576 -10.7698 14.6429 -34.1091 -11.9301 70.6409 7.76476 67.2432 -0.167143 -2.82918 -8.40582 0.959595 1.42515 -12.2893 1.23327 
-1.25813 88.2823 91.5466 73.7684 -40.6509 -8.0905 -70.1915 0 88.8779 101.497 73.2937 -15.4388 1.13244 22.1956 5.87047 -118.071 29.3533 160.198 178.799 72.6472 -142.394 0.762492 -12.7918 -20.4938 -73.9743 37.2501 -138.977 23.0405 -5.35989 -101.631 0.420957 0.000575464 0.35866 -2.2605 8.06178 42.2794 -125.141 -11.2742 95.2539 15.2065 -5.32444 71.0651 0.58676 0.00033073 0.0646653 -40.6301 11.0893 101.705 -7.04259 64.7089 -2.02647 0.0856233 -23.7603 -2.01592 4.20026 -11.7684 16.8489 -30.1462 -13.7914 72.1939 13.2956 73.3661 0.24175 -2.20099 1.86357 0.323607 2.38047 -19.5064 -3.39981 
-1.21235 87.851 93.06 74.2283 -40.874 -7.68235 -70.1915 0 88.8779 102.991 73.3428 -17.7667 0.79653 22.1593 6.55223 -117.747 29.014 159.528 -179.316 72.7088 -143.669 0.729033 -13.1446 -20.3102 -71.4489 35.7797 -139.206 22.1388 -4.69596 -100.624 0.420957 0.000575464 0.35866 -2.13348 7.79046 41.6737 -125.73 -10.8758 95.04 16.2212 -4.77404 73.926 0.58676 0.00033073 0.0646653 -41.3103 12.186 101.382 -7.31594 65.5674 -1.33507 -0.0255903 -25.0456 -2.13676 4.06586 -11.536 16.5831 -27.6302 -15.3606 73.2233 16.3127 76.0946 -3.51278 -3.68319 4.04499 0.441987 2.24664 -18.1454 -3.42698 
-1.199 87.6521 94.7801 73.7279 -40.9323 -7.83202 -70.1915 0 88.8779 102.369 73.0626 -16.8781 0.476287 22.1031 5.49168 -116.69 27.9879 158.033 -176.151 72.5657 -146.424 0.744039 -13.0314 -20.1982 -67.7967 34.1999 -138.948 25.4372 -4.05648 -97.7269 0.420957 0.000575464 0.35866 -2.19441 7.82218 42.3284 -126.574 -9.48116 95.9136 16.3341 -3.95069 76.6434 0.58676 0.00033073 0.0646653 -41.4992 13.2994 100.893 -7.66877 65.875 -2.11051 0.433573 -24.6303 -2.05775 4.82956 -12.8596 18.4423 -26.3754 -16.6001 73.8318 10.1393 72.1136 -4.12966 -4.88886 1.85868 0.715922 2.26824 -18.3659 -3.25929 
-0.994816 87.341 96.4576 73.8704 -40.7257 -7.4731 -70.1915 0 88.8779 100.057 73.4897 -14.5902 1.65262 22.3139 5.59369 -116.441 27.886 157.025 -176.507 72.814 -146.325 0.54443 -14.4103 -21.5826 -66.1443 33.103 -137.45 26.1949 -3.20419 -95.7599 0.420957 0.000575464 0.35866 -1.92999 7.68572 39.4311 -128.866 -9.6294 95.5434 16.5817 -3.19784 79.2444 0.58676 0.00033073 0.0646653 -42.0369 14.1692 100.156 -7.85153 66.3541 -1.77553 0.316948 -25.7705 -2.16418 4.28266 -12.0702 18.3592 -27.2463 -17.9178 74.5839 5.35345 62.9311 -1.48077 -5.57591 0.755903 0.847812 2.22828 -17.672 -7.96622 
-0.856642 87.0856 98.5427 74.0703 -40.4828 -7.35156 -70.1915 0 88.8779 99.2775 73.7645 -13.7284 2.02859 22.5798 5.35604 -115.913 27.7982 156.042 -175.557 73.1865 -147.319 0.396032 -15.2403 -22.6555 -65.0384 32.5642 -136.241 26.4621 -2.55527 -94.4055 0.420957 0.000575464 0.35866 -1.68786 7.5373 36.7316 -131.334 -9.54127 95.657 16.6339 -2.70297 80.8745 0.58676 0.00033073 0.0646653 -43.0119 15.1999 99.842 -7.82923 66.3598 -1.58728 0.481425 -25.3373 -2.11132 5.16344 -13.2837 17.9021 -29.4742 -18.9102 75.624 2.43472 50.4646 -2.15789 -3.6959 3.16814 0.483318 1.85453 -12.0307 -6.83961 
-0.657368 86.8914 100.776 74.216 -40.0466 -7.15916 -70.1915 0 88.8779 99.841 73.3062 -13.4424 1.77055 22.459 4.21636 -115.446 27.8787 156.25 -176.484 73.2071 -146.523 0.473207 -14.7544 -22.3102 -64.3215 33.2006 -135.987 26.7112 -2.46964 -94.1797 0.420957 0.000575464 0.35866 -1.63631 7.84333 35.1138 -133.174 -9.12115 96.7664 16.293 -2.3958 81.701 0.58676 0.00033073 0.0646653 -44.0361 15.9654 98.9643 -7.93987 66.1776 -2.48018 0.259786 -25.3144 -2.1316 5.51196 -13.9406 19.817 -32.0873 -20.3533 75.6921 1.27674 38.3336 -2.39405 -2.30616 10.4101 -0.143282 1.21312 -2.36753 -6.59698 
-0.550537 86.5741 103.192 73.7974 -39.098 -7.69244 -70.1915 0 88.8779 98.2464 73.172 -11.5896 1.29 22.4793 3.53407 -114.765 27.8386 155.718 -176.225 73.4662 -146.902 0.555345 -14.4042 -21.3158 -64.8981 33.5381 -137.844 25.5622 -2.10656 -93.6807 0.420957 0.000575464 0.35866 -1.59719 7.76613 34.8287 -134.461 -7.45228 98.7002 14.8417 -2.20471 81.5952 0.58676 0.00033073 0.0646653 -44.4957 16.4252 98.1348 -7.79332 65.8513 -2.64953 -0.100543 -25.4547 -2.17999 5.60561 -14.0609 19.705 -33.1545 -22.1113 78.3657 2.12586 29.786 -2.85161 -0.772237 16.1268 -0.874195 0.148132 6.07748 -4.10653 
-0.467362 86.4605 105.949 74.0191 -38.201 -7.46479 -70.1915 0 88.8779 96.0106 73.3283 -8.98962 1.70131 22.5809 3.43225 -114.87 28.4055 155.896 -177.6 73.842 -146.117 0.51383 -14.8354 -21.1046 -67.7996 33.3744 -139.831 24.7032 -2.00968 -93.642 0.420957 0.000575464 0.35866 -1.48331 7.61078 33.7661 -135.791 -6.66751 99.3135 16.0707 -2.51031 81.2197 0.58676 0.00033073 0.0646653 -45.8697 17.4893 97.346 -7.42348 64.7945 -3.4561 -0.274737 -24.989 -2.15599 5.88756 -14.4407 19.5752 -34.73 -23.2614 80.5484 2.53447 23.7503 0.484094 1.95762 19.9248 -1.95668 -0.576837 14.3283 -3.96175 
-0.426261 86.3426 109.126 74.195 -36.9463 -7.3798 -70.1915 0 88.8779 93.7995 72.8402 -6.83776 1.63135 22.0639 3.30021 -115.268 28.7791 156.653 -178.596 73.8361 -146.019 0.539457 -14.6883 -20.8911 -71.5172 33.1014 -142.114 23.0054 -1.73772 -93.3668 0.420957 0.000575464 0.35866 -1.46667 7.76545 33.1127 -136.021 -7.27186 99.1407 16.7364 -2.64141 81.143 0.58676 0.00033073 0.0646653 -47.4294 18.4129 96.2149 -7.00731 63.1929 -5.02024 -1.18527 -24.505 -2.19694 6.22689 -14.9388 20.059 -35.2291 -25.0794 80.7638 2.03757 22.0087 1.78152 0.291014 22.7821 -1.67952 -3.34137 14.5397 5.58533 
-0.447118 86.4326 112.743 74.5333 -36.2843 -7.18626 -70.1915 0 88.8779 91.8973 72.7632 -4.78486 1.77662 22.1734 2.64191 -114.592 28.0193 155.074 -174.014 74.0107 -150.435 0.54961 -15.1093 -19.5939 -74.7092 34.24 -145.034 22.7452 -1.418 -92.6657 0.420957 0.000575464 0.35866 -1.42458 7.08842 34.5158 -134.958 -6.91181 99.2586 16.6397 -2.59316 81.2338 0.58676 0.00033073 0.0646653 -50.0243 19.7893 95.4167 -6.05711 60.3119 -5.76438 -1.5491 -22.5586 -2.03459 6.82078 -15.674 18.4912 -35.7556 -25.868 80.5979 1.73174 22.736 7.36065 1.79216 24.1041 -2.2879 -1.57428 15.5966 -0.937004 
-0.630914 86.6003 116.881 75.2152 -35.8988 -6.99452 -70.1915 0 88.8779 87.7474 72.1971 -1.33507 2.81851 21.2888 3.43003 -116.049 29.6662 159.773 176.411 73.1621 -141.723 0.583286 -14.6319 -19.9598 -78.1788 34.7786 -146.056 20.5751 -1.32617 -92.8101 0.420957 0.000575464 0.35866 -1.54106 8.22192 32.8621 -133.423 -9.48346 97.2335 16.1913 -2.62414 80.8854 0.58676 0.00033073 0.0646653 -53.7232 21.2332 94.8825 -4.94725 56.1877 -6.13209 -1.12511 -19.8051 -1.74073 7.17776 -16.1101 16.8933 -36.5439 -26.0378 80.3888 1.26081 25.3438 10.9759 3.08224 24.37 -2.74967 -0.283658 5.85758 -1.99015 
-1.12115 86.7683 121.413 75.5463 -35.8373 -6.95464 -70.1915 0 88.8779 84.447 71.9416 0.99047 3.48695 20.9199 3.8073 -116.958 29.689 161.058 175.418 72.5747 -141.001 0.657886 -14.2533 -19.0053 -80.1684 36.066 -147.591 20.2512 -1.11006 -92.2931 0.420957 0.000575464 0.35866 -1.6176 8.04274 34.3059 -131.199 -10.4508 97.3686 16.5129 -2.85952 80.2966 0.58676 0.00033073 0.0646653 -56.8652 23.0537 94.4494 -3.85003 52.2522 -4.22435 -1.57514 -16.5473 -1.44315 6.50404 -14.9343 13.5918 -36.7613 -24.6387 81.5058 1.32054 30.5823 10.399 2.32156 20.3361 -2.10551 1.12731 -8.63289 -1.01044 
-1.93359 87.0636 125.881 75.8667 -35.4689 -6.44545 -70.1915 0 88.8779 83.3649 71.3014 1.1228 3.66492 20.1303 4.31756 -117.724 29.7262 162.387 173.841 71.9797 -140.375 0.694947 -13.9485 -18.7725 -80.9784 36.0377 -147.555 19.7733 -1.08394 -92.2983 0.420957 0.000575464 0.35866 -1.78026 8.21408 35.8647 -128.734 -11.3638 97.8172 17.271 -3.45784 78.8764 0.58676 0.00033073 0.0646653 -57.928 25.1972 93.2078 -3.29642 50.5561 -2.35999 -2.37746 -12.4361 -1.03178 4.53206 -11.7485 12.6625 -37.2729 -24.0056 79.3919 2.01745 35.0944 5.56044 -0.634418 13.6491 -0.737067 0.636921 -10.5342 8.83291 
-2.90847 87.323 129.734 75.7328 -35.4489 -5.37063 -70.1915 0 88.8779 85.3925 70.7195 -0.496484 3.3383 19.533 4.73178 -117.643 29.1994 162.228 175.011 71.6509 -141.555 0.733266 -13.4927 -18.9163 -79.698 35.7029 -146.934 20.1636 -1.29745 -92.808 0.420957 0.000575464 0.35866 -1.87757 8.108 37.3901 -126.919 -12.2227 97.9828 17.2856 -3.97341 77.311 0.58676 0.00033073 0.0646653 -56.3372 27.8245 91.2826 -2.87958 51.516 1.20643 -3.97376 -6.64866 -0.330793 3.34202 -9.75211 12.1524 -38.0816 -22.2042 76.0884 2.15555 38.1309 4.63747 -1.98205 7.61754 -0.0495324 0.56048 -10.363 9.3868 
-3.89858 87.514 133.113 75.6625 -35.1382 -5.35099 -70.1915 0 88.8779 87.0693 70.6636 -2.74753 3.11945 19.3973 5.35653 -117.777 29.1217 161.661 175.444 71.7878 -141.935 0.659643 -13.9126 -19.9228 -77.5582 34.5053 -145.189 21.82 -1.73956 -93.6074 0.420957 0.000575464 0.35866 -1.97535 8.27613 38.0788 -126.291 -11.7286 97.8997 17.7502 -4.27104 76.7685 0.58676 0.00033073 0.0646653 -53.6508 28.0171 89.134 -2.33516 53.2382 5.78932 -1.66774 0.191169 0.142685 2.60117 -8.38719 11.3699 -38.0975 -21.0275 75.1976 2.48614 41.2441 5.0885 -1.42625 2.23877 0.186265 0.350449 -8.24108 6.90743 
-4.86131 87.8463 135.975 75.0721 -35.4003 -6.1634 -70.1915 0 88.8779 90.5401 70.9255 -5.64834 2.38539 19.7809 4.90845 -118.373 29.524 161.499 174.937 72.1028 -141.095 0.555803 -14.3307 -21.5324 -74.4456 34.3404 -143.509 22.8607 -2.0206 -94.0486 0.420957 0.000575464 0.35866 -2.01579 8.4441 38.0547 -126.373 -10.8162 98.472 17.3588 -4.26277 76.4971 0.58676 0.00033073 0.0646653 -50.7953 26.7516 88.2568 -2.75759 55.7397 5.72751 -3.27069 -5.98166 -0.308748 -0.231228 -3.84057 12.124 -36.968 -19.5564 75.6276 2.74839 43.9379 5.05489 -2.75629 -0.694005 0.540465 0.571196 -7.84499 3.86356 
-5.62525 88.0287 138.377 74.5968 -35.6054 -7.32108 -70.1915 0 88.8779 93.2149 71.258 -7.85065 2.19075 20.3831 3.8863 -118.32 29.5252 160.205 177.15 72.7068 -142.658 0.40221 -15.1873 -22.6705 -71.2725 34.5846 -141.455 22.9816 -2.10446 -94.216 0.420957 0.000575464 0.35866 -1.94382 8.36969 37.412 -127.107 -10.5292 98.8374 16.0681 -3.77074 76.993 0.58676 0.00033073 0.0646653 -47.7543 24.2183 88.9601 -3.98375 58.4328 2.39643 -2.39646 -8.76693 -0.657001 2.04562 -8.2313 15.0997 -35.7323 -18.5866 76.5652 2.98016 46.4833 4.66475 -3.94246 -3.1186 0.792111 0.764176 -7.65521 1.57969 
